<svg xmlns="http://www.w3.org/2000/svg" viewBox="0 0 69.93 69.93"><defs><style>.cls-1,.cls-5{fill:#282828;}.cls-2,.cls-4{fill:#6cdbeb;}.cls-3{fill:#ff3d22;}.cls-4,.cls-5,.cls-6{fill-rule:evenodd;}.cls-6{fill:#fff;}</style></defs><title>Asset 41</title><g id="Layer_2" data-name="Layer 2"><g id="Layer_1-2" data-name="Layer 1"><path class="cls-1" d="M35,0V6.64A28.36,28.36,0,0,1,63.29,35h6.64A35,35,0,0,0,35,0Z"/><path class="cls-2" d="M35,63.29A28.33,28.33,0,1,1,35,6.64V0A35,35,0,1,0,59.69,59.69L55,55A28.23,28.23,0,0,1,35,63.29Z"/><path class="cls-3" d="M63.29,35A28.23,28.23,0,0,1,55,55l4.7,4.7A34.85,34.85,0,0,0,69.93,35Z"/><path id="Fill-3" class="cls-4" d="M50.08,35A15.12,15.12,0,1,1,35,19.85,15.11,15.11,0,0,1,50.08,35h0"/><path id="Fill-5" class="cls-5" d="M43.38,35A8.48,8.48,0,1,1,34.9,26.5h0A8.49,8.49,0,0,1,43.38,35"/><path id="Fill-7" class="cls-6" d="M30.93,31.09a2.73,2.73,0,1,1-2.73-2.73,2.73,2.73,0,0,1,2.73,2.73"/></g></g></svg>